<?xml version="1.0" encoding="UTF-8"?><svg width="136" height="200" viewBox="0 0 136 200" xmlns="http://www.w3.org/2000/svg"><g fill="none" fill-rule="evenodd"><path fill="#FE0" d="M0 136.709h136V0H0z"/><path d="M113.163 68.977c0-6.05-4.91-10.987-10.931-10.987-6.022 0-10.932 4.937-10.932 10.987 0 6.053 4.91 10.991 10.932 10.991 6.02 0 10.931-4.938 10.931-10.99zm-2.368.003c0 4.738-3.846 8.605-8.562 8.605-4.718 0-8.563-3.867-8.563-8.605 0-4.743 3.845-8.608 8.563-8.608 4.716 0 8.562 3.865 8.562 8.608zM44.25 69.03c0-6.052-4.91-10.99-10.931-10.99-6.02 0-10.932 4.938-10.932 10.99 0 6.05 4.911 10.986 10.932 10.986 6.02 0 10.931-4.936 10.931-10.987zm-2.368 0c0 4.74-3.846 8.605-8.563 8.605-4.716 0-8.562-3.865-8.562-8.606 0-4.742 3.846-8.609 8.562-8.609 4.717 0 8.563 3.867 8.563 8.61z" fill="#5E6872"/><path d="M91.222 80.02c2.823 2.838 6.718 4.595 11.007 4.595 8.58 0 15.576-7.034 15.576-15.656 0-8.626-6.996-15.66-15.576-15.66a15.184 15.184 0 00-10.968 4.643l.04-34.298h2.369l.029 29.45a17.738 17.738 0 018.55-2.184c9.894 0 17.966 8.113 17.966 18.058 0 9.947-8.072 18.059-17.966 18.059-4.638 0-8.755-1.922-12.068-4.7-2.294-1.923-4.294-4.773-6.473-7.23.67 4.871-3.833 12.462-14.416 12.462-9.136 0-12.613-4.054-19.35-11.572-2.732 6.478-9.127 11.04-16.549 11.04-3.091 0-6.005-.793-8.552-2.185l-.017 29.658h-2.428l-.052-34.501c2.82 2.834 6.71 4.555 10.997 4.592 9.073.072 14.575-6.897 15.462-13.853 3.028 3.911 6.34 7.7 9.706 10.686 2.77 2.456 5.733 3.648 10.349 3.735 7.534.146 12.605-3.963 12.573-9.762-.039-6.716-7.427-8.598-13.325-8.698-1.656-.03-3.852-.155-5.599-.81-1.64-.618-2.867-1.602-2.889-3.383-.042-3.452 4.3-4.852 8.405-4.788 2.397.036 4.767.677 6.499 1.825 2.292 1.516 4.582 4.744 7.057 8.23-1.78-1.564-3.584-2.726-5.646-3.31-.98-1.588-1.931-2.729-3.643-3.421-1.212-.494-2.842-.896-4.397-.87-3.442.06-5.887.94-5.88 2.052.007 1.299 1.952 1.965 6.093 2.085 4.066.118 7.149.766 9.653 2.067 3.544 1.835 5.955 4.737 8.64 7.814 1.695 1.942 3.14 3.887 4.823 5.83" fill="#5E6872"/><path d="M44.337 57.89c-2.732-2.918-6.71-4.591-10.996-4.591-8.573 0-15.565 7.028-15.565 15.621v45.58h-2.349V68.968c0-9.945 8.07-18.058 17.966-18.058 4.793 0 9.053 2.017 12.389 4.979 2.728 2.425 4.195 4.555 6.649 7.416-.83-14.725 24.187-17.176 31.84-3.764V23.644h2.389V66.8c-3.578-4.495-5.682-8.964-9.748-11.276-2.86-1.628-6.138-2.293-9.108-2.39-5.853-.191-12.968 2.397-12.937 9.491.03 6.689 6.49 8.06 11.009 8.484 2.461.229 5.53.305 7.764 1.003 1.851.579 3.118 1.613 3.114 3.28-.007 3.38-3.675 5.16-7.499 5.146-4.413-.012-6.12-1.3-8.157-3.046-2.75-2.36-4.863-5.044-6.439-6.829 1.833 1.543 3.772 2.279 5.686 2.93 3.764 3.662 5.304 4.552 8.795 4.646 1.804.048 5.139-.777 5.174-2.557.029-1.524-3.537-1.805-6.028-1.948-4.968-.284-10.689-1.171-14.135-4.832-1.427-1.515-3.094-3.16-4.478-5.015-1.596-2.14-3.549-4.089-5.336-5.996" fill="#5E6872"/><path d="M92.777 79.953a14.34 14.34 0 009.45 3.552c7.962 0 14.455-6.525 14.455-14.528 0-8.002-6.493-14.53-14.454-14.53-5.02 0-9.458 2.596-12.051 6.519l.004-37.322h-2.408v44.591l2.735 3.617c-.21-.92-.331-1.885-.331-2.877 0-6.686 5.427-12.142 12.081-12.142 6.653 0 12.078 5.456 12.078 12.142 0 6.688-5.425 12.143-12.078 12.143-2.702 0-5.203-.902-7.25-2.402-3.321-2.872-5.937-6.798-8.609-10.431a681.921 681.921 0 00-6.247-8.366c-2.716-3.57-7.51-5.608-12.162-5.689-6.38-.105-11.95 2.45-12.006 8.533-.05 5.53 6.036 7.155 11.928 7.403 4.546.193 9.993 1.016 9.98 5.007-.018 5.259-5.339 6.508-9.002 6.55-4.165.045-7.044-1.77-9.729-4.386-1.78-1.73-3.52-3.82-5.32-5.948-3.503-4.146-5.954-8.066-10.23-12.665-2.626-2.64-6.25-4.277-10.242-4.277-7.985 0-14.496 6.547-14.496 14.572V114.5h2.426l-.041-37.49c2.596 3.96 7.059 6.58 12.111 6.58 7.672 0 13.984-6.042 14.474-13.581l-2.716-3.946c.226.927.346 1.891.346 2.888 0 6.688-5.43 12.149-12.086 12.149-6.658 0-12.088-5.46-12.088-12.15 0-6.692 5.43-12.151 12.088-12.151 3.278 0 6.256 1.324 8.438 3.464 3.29 3.608 5.725 7.543 8.825 11.15 3.125 3.63 6.206 7.526 9.963 10.155 2.614 1.826 4.453 2.451 8.394 2.457 4.852.007 11.23-1.89 11.293-8.776.053-5.682-6.859-7.364-12.271-7.46-2.035-.035-5.056-.381-7.072-1.335-1.414-.672-2.541-1.97-2.51-3.734.082-4.902 4.91-6.07 9.563-6.101 2.118-.011 4.938.418 7.553 2.31 1.635 1.185 3.3 3.042 5.137 5.667 3.794 5.43 7.417 10.41 12.077 15.357M0 199.75h136v-54.43H0z" fill="#5E6872"/><path d="M15.416 184.79h.845v-8.614h-.845v8.614zm4.444 0h.846v-7.43h.024l4.286 7.43h1.14v-8.614h-.845v7.578h-.025l-4.36-7.578H19.86v8.614zm11.368 0h.847v-7.875h2.528v-.74H28.7v.74h2.528v7.875zm6.887-7.875h.873c1.166 0 2.16.086 2.16 1.494 0 1.199-1.141 1.58-2.136 1.58h-.897v-3.074zm-.846 7.875h.846v-4.06h.7c.811 0 1.18.036 1.671 1.147l1.24 2.913h.931l-1.46-3.333c-.269-.58-.416-.95-1.105-1.035v-.026c1.057-.135 1.903-.876 1.903-1.987 0-1.58-.994-2.233-2.516-2.233h-2.21v8.614zm7.87 0h.823l.92-2.309h4.322l.92 2.309h.885l-3.402-8.614h-.957l-3.51 8.614zm5.782-3.047h-3.719l1.866-4.753 1.853 4.753zm4.95 3.047h4.283v-.74h-3.438v-7.874h-.845v8.614zm5.868-4.308c.024 2.642 1.3 4.456 3.769 4.456 2.468 0 3.744-1.814 3.768-4.456.025-2.333-1.19-4.454-3.768-4.454-2.58 0-3.794 2.121-3.769 4.454zm3.769-3.715c2.013 0 2.923 1.889 2.923 3.715 0 1.828-.91 3.717-2.923 3.717-2.015 0-2.924-1.889-2.924-3.717 0-1.826.91-3.715 2.924-3.715zm12.094 7.123c-.406.247-1.29.309-1.819.309-2.259 0-3.475-1.543-3.475-3.715 0-2.136 1.253-3.717 3.475-3.717.75 0 1.536.086 2.198.457l.098-.79c-.575-.295-1.644-.406-2.296-.406-2.652 0-4.32 1.838-4.32 4.456 0 2.665 1.62 4.454 4.32 4.454.946 0 1.794-.148 2.664-.53v-4.283h-2.835v.74h1.99v3.025zm4.358.9h.846v-8.614h-.846v8.614zm3.99-.222c.454.197 1.104.37 1.939.37 1.327 0 2.81-.69 2.81-2.43 0-2.52-3.928-2.53-3.928-4.26 0-1.11.97-1.48 1.854-1.48.578 0 1.18.11 1.56.32l.135-.778c-.589-.22-1.264-.282-1.682-.282-1.511 0-2.712.863-2.712 2.245 0 2.259 3.928 2.469 3.928 4.16 0 1.223-.872 1.766-1.929 1.766-.798 0-1.386-.185-1.889-.507l-.087.876zm10.018.222h.846v-7.875h2.529v-.74H93.44v.74h2.528v7.875zm6.643 0h.846v-8.614h-.846v8.614zm10.238-8.442c-.442-.234-1.461-.32-1.965-.32-2.652 0-4.32 1.838-4.32 4.454 0 2.667 1.619 4.456 4.32 4.456.54 0 1.499-.086 1.965-.37l-.05-.74c-.49.296-1.35.37-1.915.37-2.259 0-3.474-1.542-3.474-3.716 0-2.135 1.251-3.715 3.474-3.715.602 0 1.375.086 1.915.371l.05-.79zm2.924 8.22c.453.197 1.103.37 1.939.37 1.326 0 2.81-.69 2.81-2.43 0-2.52-3.928-2.53-3.928-4.26 0-1.11.97-1.48 1.854-1.48.577 0 1.18.11 1.56.32l.134-.778c-.588-.22-1.264-.282-1.681-.282-1.511 0-2.714.863-2.714 2.245 0 2.259 3.93 2.469 3.93 4.16 0 1.223-.872 1.766-1.929 1.766-.798 0-1.387-.185-1.89-.507l-.085.876zM21.727 159.892c-.442-.234-1.46-.32-1.964-.32-2.652 0-4.32 1.838-4.32 4.455 0 2.667 1.619 4.455 4.32 4.455.54 0 1.498-.086 1.964-.37l-.049-.74c-.491.296-1.35.371-1.915.371-2.26 0-3.474-1.543-3.474-3.716 0-2.136 1.251-3.716 3.474-3.716.602 0 1.375.086 1.915.371l.05-.79zm4.12.567h.873c1.168 0 2.162.087 2.162 1.494 0 1.199-1.143 1.581-2.138 1.581h-.896v-3.075zm-.844 7.875h.845v-4.06h.7c.81 0 1.18.036 1.67 1.148l1.24 2.912h.933l-1.46-3.333c-.27-.58-.418-.95-1.105-1.035v-.025c1.056-.136 1.901-.876 1.901-1.988 0-1.58-.992-2.233-2.516-2.233h-2.208v8.614zm8.236 0h4.345v-.74h-3.5v-3.32h3.181v-.74h-3.18v-3.075h3.352v-.739h-4.198v8.614zm6.895 0h.822l.92-2.309h4.321l.92 2.31h.885l-3.4-8.615h-.957l-3.511 8.614zm5.781-3.047h-3.72l1.866-4.753 1.854 4.753zm5.63 3.047h.846v-7.875h2.53v-.739h-5.904v.74h2.528v7.874zm6.007 0h.845v-8.614h-.845v8.614zm4.32 0h.845v-7.43h.026l4.286 7.43h1.14v-8.614h-.845v7.579h-.025l-4.36-7.579h-1.067v8.614zm15.642-.9c-.406.247-1.29.309-1.817.309-2.26 0-3.476-1.543-3.476-3.715 0-2.136 1.252-3.717 3.476-3.717.749 0 1.535.086 2.197.457l.098-.79c-.577-.294-1.644-.406-2.295-.406-2.654 0-4.322 1.838-4.322 4.456 0 2.666 1.62 4.454 4.322 4.454.945 0 1.793-.148 2.663-.53v-4.282h-2.836v.739h1.99v3.025zm11.38.9h.847v-3.653l3.18-4.96H92l-2.69 4.208-2.614-4.209h-.982l3.18 4.961v3.653zm5.805-4.307c.024 2.641 1.3 4.455 3.769 4.455 2.468 0 3.744-1.814 3.767-4.455.026-2.333-1.188-4.455-3.767-4.455-2.58 0-3.794 2.122-3.77 4.455zm3.769-3.716c2.013 0 2.923 1.889 2.923 3.716 0 1.827-.91 3.716-2.923 3.716-2.015 0-2.924-1.889-2.924-3.716 0-1.827.909-3.716 2.924-3.716zm13.111-.59h-.846v5.603c0 1.406-.773 2.419-2.26 2.419-1.485 0-2.26-1.013-2.26-2.419v-5.604h-.846v5.604c0 2.542 1.854 3.158 3.107 3.158 1.252 0 3.105-.616 3.105-3.158v-5.604zm4.423.738h.871c1.167 0 2.162.087 2.162 1.494 0 1.199-1.142 1.581-2.137 1.581h-.896v-3.075zm-.847 7.875h.847v-4.06h.7c.81 0 1.179.036 1.67 1.148l1.24 2.912h.932l-1.46-3.333c-.27-.58-.416-.95-1.105-1.035v-.025c1.056-.136 1.902-.876 1.902-1.988 0-1.58-.993-2.233-2.516-2.233h-2.21v8.614z" fill="#FFFFFE"/></g></svg>